<?xml version="1.0" standalone="no"?><!DOCTYPE svg PUBLIC "-//W3C//DTD SVG 1.1//EN" "http://www.w3.org/Graphics/SVG/1.1/DTD/svg11.dtd"><svg t="1652690716281" class="icon" viewBox="0 0 1024 1024" version="1.1" xmlns="http://www.w3.org/2000/svg" p-id="2123" xmlns:xlink="http://www.w3.org/1999/xlink" width="64" height="64"><defs><style type="text/css">@font-face { font-family: "feedback-iconfont"; src: url("//at.alicdn.com/t/font_1031158_u69w8yhxdu.woff2?t=1630033759944") format("woff2"), url("//at.alicdn.com/t/font_1031158_u69w8yhxdu.woff?t=1630033759944") format("woff"), url("//at.alicdn.com/t/font_1031158_u69w8yhxdu.ttf?t=1630033759944") format("truetype"); }
</style></defs><path d="M275.9 875.6h438v82.5h-438z" fill="#66B2F6" p-id="2124"></path><path d="M110.5 959.5C97.7 562.3 252.3 262.7 569.8 69c11.7-7.1 26.1-8 38.6-2.3 12.4 5.7 21.3 17.2 23.5 30.7 7.8 46.2 11.5 64.9 13.2 72.3 12.3 16.3 64.8 79.8 261.1 306.7 11.9 13.8 13.4 33.7 3.6 49.1l-74.2 117.1c-9.7 15.3-28.3 22.5-45.9 17.7l-209.6-58c-7.6-2-12.3-1.6-14-0.7-2.7 1.7-8.4 9.3-12.4 27.8l-1 4.1c2.9 2.5 23.9 14.2 39.2 22.7 68 37.9 181.9 101.3 180.2 302.2l-82.5-0.7c1.3-151.9-75.9-194.9-137.9-229.4-41-22.9-97.3-54.2-77.8-119.6 7.7-35.5 24.6-62.6 49.4-77.7 15.3-9.3 41.3-18.3 78.5-8.5l180.4 50 41.4-65.4C574.1 218.3 571.5 211 567.8 200.1c-1-3.1-2.6-7.7-6.5-27.6C302.4 351.4 181.8 608.6 193 956.8l-82.5 2.7z" fill="#66B2F6" p-id="2125"></path><path d="M564.6 380.6m-41.3 0a41.3 41.3 0 1 0 82.6 0 41.3 41.3 0 1 0-82.6 0Z" fill="#7EDBFE" p-id="2126"></path></svg>